<svg id="Calque_1" data-name="Calque 1" xmlns="http://www.w3.org/2000/svg" viewBox="0 0 224.9 114.53"><defs><style>.cls-1{fill:none;stroke:#fff;}.cls-1,.cls-4{stroke-miterlimit:10;}.cls-2{fill:#65c05d;}.cls-3,.cls-4{fill:#fff;}.cls-4{stroke:#000;}.cls-5{fill:#fff82e;}</style></defs><title>logo_vactualise</title><rect class="cls-1" x="77.1" y="26.3" width="21.21" height="48.11"/><path class="cls-2" d="M111.88,2.71h48.33c3.23,0,5.85,1.85,5.85,4.14h0c0,2.29-2.62,4.14-5.85,4.14H111.88C108.65,11,106,9.14,106,6.85h0C106,4.56,108.65,2.71,111.88,2.71Z" transform="translate(-48.69 -2.71)"/><rect class="cls-2" x="82.05" y="8.27" width="11.77" height="15.47"/><rect class="cls-2" x="84.74" y="8.27" width="6.41" height="12.66"/><path class="cls-3" d="M124.19,26.45h24A2.56,2.56,0,0,1,150.78,29h0a2.56,2.56,0,0,1-2.58,2.55h-24A2.57,2.57,0,0,1,121.6,29h0A2.57,2.57,0,0,1,124.19,26.45Z" transform="translate(-48.69 -2.71)"/><polygon class="cls-4" points="76.89 35.85 76.89 35.85 76.89 35.85 76.89 35.85 76.89 35.85"/><rect class="cls-3" x="76.89" y="35.85" width="10.32" height="3.23"/><rect class="cls-3" x="76.89" y="42.44" width="4.9" height="2.95"/><rect class="cls-3" x="76.89" y="48.76" width="10.32" height="3.2"/><rect class="cls-3" x="76.89" y="55.63" width="4.9" height="2.95"/><rect class="cls-3" x="76.89" y="62.08" width="10.32" height="3.23"/><line class="cls-1" x1="85.16" y1="74.41" x2="85.17" y2="88.04"/><line class="cls-1" x1="89.68" y1="74.47" x2="89.73" y2="98.38"/><line class="cls-1" x1="85.17" y1="88.04" x2="85.17" y2="101.94"/><path class="cls-1" d="M133.87,104.24c0-1.74,2-3.15,4.55-3.15" transform="translate(-48.69 -2.71)"/><path class="cls-1" d="M138.42,101.09c0,1.74-2.25,3.15-5.07,3.15" transform="translate(-48.69 -2.71)"/><polygon class="cls-5" points="89.7 114.53 87.98 111.09 84.13 110.54 86.92 107.86 86.26 104.08 89.7 105.87 93.15 104.08 92.49 107.86 95.28 110.54 91.43 111.09 89.7 114.53"/><path class="cls-3" d="M61.43,77.5H58L48.69,27.86h4.68L56.46,45.6q1.18,6.9,2,12.14l1.29,8Q60.18,63,61,57.88t2.08-12.13l3.2-17.89h4.46Z" transform="translate(-48.69 -2.71)"/><path class="cls-3" d="M79.07,27.86h3.46L92.14,77.5H87.46l-2.28-13h-9l-2.36,13H69.5Zm5,30.21q-1.19-6.6-2-12c-.56-3.59-1-6.42-1.29-8.47-.34,2.2-.79,5.09-1.36,8.65s-1.23,7.51-2,11.81Z" transform="translate(-48.69 -2.71)"/><path class="cls-3" d="M109.15,37.83a10.38,10.38,0,0,0-1.86-2.9,3.1,3.1,0,0,0-2.27-1,3.27,3.27,0,0,0-2.67,1.43,11.42,11.42,0,0,0-1.74,4,35.42,35.42,0,0,0-1,5.91c-.2,2.25-.3,4.66-.3,7.26s.1,5,.28,7.25a33.23,33.23,0,0,0,1,5.94,11.09,11.09,0,0,0,1.84,4,3.6,3.6,0,0,0,2.93,1.46A4.69,4.69,0,0,0,107,70.9c.51-.2,1-.4,1.41-.62a8.68,8.68,0,0,0,1.07-.63l.53-.36,1,6.16-.48.36a10.56,10.56,0,0,1-1.35.85,13.12,13.12,0,0,1-2.06.88,8.44,8.44,0,0,1-2.63.4q-4.94,0-7.42-6.27T94.6,53.3a78,78,0,0,1,.67-10.59,36.94,36.94,0,0,1,2-8.25,14.33,14.33,0,0,1,3.39-5.35,6.79,6.79,0,0,1,4.81-1.91,4.61,4.61,0,0,1,3.62,1.61,13.71,13.71,0,0,1,2.3,3.67Z" transform="translate(-48.69 -2.71)"/><path class="cls-2" d="M163.62,27.86V58.58q0,6.83,1.43,9.72T169,71.19q2.5,0,3.7-3.33a28.5,28.5,0,0,0,1.19-9.28V27.86h4.39V59.24a49.6,49.6,0,0,1-.5,7.19,22.73,22.73,0,0,1-1.64,5.94,10.58,10.58,0,0,1-3,4.06,7.09,7.09,0,0,1-4.6,1.51,6.41,6.41,0,0,1-4.36-1.51,10.67,10.67,0,0,1-2.84-4.06,23.2,23.2,0,0,1-1.54-5.94,52.74,52.74,0,0,1-.47-7.19V27.86Z" transform="translate(-48.69 -2.71)"/><path class="cls-2" d="M190.94,27.86h3.46L204,77.5h-4.68l-2.28-13h-9l-2.36,13h-4.34Zm5,30.21q-1.18-6.6-2-12c-.56-3.59-1-6.42-1.29-8.47q-.51,3.3-1.36,8.65t-2,11.81Z" transform="translate(-48.69 -2.71)"/><path class="cls-2" d="M208.24,27.86h4.38v43h9.32v6.6h-13.7Z" transform="translate(-48.69 -2.71)"/><path class="cls-2" d="M226.36,27.86h4.38V77.5h-4.38Z" transform="translate(-48.69 -2.71)"/><path class="cls-2" d="M244.91,27.2a6.69,6.69,0,0,1,2.47.47,14,14,0,0,1,2.15,1.1,10.63,10.63,0,0,1,1.66,1.29,8.83,8.83,0,0,1,.94,1l-1.81,6.31-.47-.51a15.47,15.47,0,0,0-1.26-1.18,10.15,10.15,0,0,0-1.69-1.17,3.63,3.63,0,0,0-1.77-.51,2.86,2.86,0,0,0-2.3,1.24,6.33,6.33,0,0,0-1,3.89,11.86,11.86,0,0,0,1.06,5.39,11.72,11.72,0,0,0,3.35,3.85,22.3,22.3,0,0,1,2.64,2.45,12.68,12.68,0,0,1,2,3,15.87,15.87,0,0,1,1.23,3.89,28.65,28.65,0,0,1,.42,5.28,28.09,28.09,0,0,1-.53,5.5,18.79,18.79,0,0,1-1.58,4.8,10.46,10.46,0,0,1-2.6,3.38,5.45,5.45,0,0,1-3.57,1.28,6.46,6.46,0,0,1-2.72-.59A13.26,13.26,0,0,1,239.19,76a13.75,13.75,0,0,1-1.81-1.58c-.5-.54-.88-1-1.12-1.25l1.55-6.74.66.73a22.45,22.45,0,0,0,1.62,1.61,18.37,18.37,0,0,0,2,1.62,3.46,3.46,0,0,0,1.85.73,3.09,3.09,0,0,0,2.9-1.91,12.1,12.1,0,0,0,1-5.35,13.75,13.75,0,0,0-.26-2.82,7.53,7.53,0,0,0-.73-2.09,7.32,7.32,0,0,0-1.16-1.58A17.17,17.17,0,0,0,244.14,56a33.54,33.54,0,0,1-3-2.78A13.76,13.76,0,0,1,239,50a16,16,0,0,1-1.4-4.11,27.54,27.54,0,0,1-.48-5.53,21.35,21.35,0,0,1,.59-5.1,16,16,0,0,1,1.62-4.18,9.16,9.16,0,0,1,2.47-2.86A5.16,5.16,0,0,1,244.91,27.2Z" transform="translate(-48.69 -2.71)"/><path class="cls-2" d="M258.24,27.86H273v6.6H262.62V48.32h8.58L270.65,55h-8V70.9h11v6.6H258.24Z" transform="translate(-48.69 -2.71)"/></svg>