<svg id="logo" xmlns="http://www.w3.org/2000/svg" viewBox="0 0 511.9 114.53"><defs><style>.cls-1{fill:none;stroke:#959698;}.cls-1,.cls-5{stroke-miterlimit:10;}.cls-2{fill:#65c05d;}.cls-3,.cls-5{fill:#fff;}.cls-4{fill:#959698;}.cls-5{stroke:#000;}.cls-6{fill:#fff82e;}.cls-7{isolation:isolate;}.cls-8{fill:#999;}</style></defs><title>logo_vactualise</title><rect class="cls-1" x="180.7" y="26.3" width="20.9" height="48.11"/><path class="cls-2" d="M174,13.87h34.2A4.14,4.14,0,0,1,212.37,18h0a4.14,4.14,0,0,1-4.14,4.14H174A4.14,4.14,0,0,1,169.89,18h0A4.14,4.14,0,0,1,174,13.87Z" transform="translate(0 -13.87)"/><rect class="cls-2" x="185.33" y="8.27" width="11.6" height="15.47"/><rect class="cls-3" x="187.74" y="8.27" width="6.82" height="12.66"/><path class="cls-4" d="M179.12,37.61h23.66a2.55,2.55,0,0,1,2.55,2.55h0a2.55,2.55,0,0,1-2.55,2.55H179.12a2.55,2.55,0,0,1-2.55-2.55h0A2.55,2.55,0,0,1,179.12,37.61Z" transform="translate(0 -13.87)"/><polygon class="cls-5" points="180.5 35.85 180.5 35.85 180.5 35.85 180.5 35.85 180.5 35.85"/><rect class="cls-4" x="180.5" y="35.85" width="10.17" height="3.23"/><rect class="cls-4" x="180.5" y="42.44" width="4.83" height="2.95"/><rect class="cls-4" x="180.5" y="48.76" width="10.17" height="3.2"/><rect class="cls-4" x="180.5" y="55.63" width="4.83" height="2.95"/><rect class="cls-4" x="180.5" y="62.08" width="10.17" height="3.23"/><line class="cls-1" x1="188.65" y1="74.41" x2="188.66" y2="88.04"/><line class="cls-1" x1="193.1" y1="74.47" x2="193.15" y2="98.38"/><line class="cls-1" x1="188.66" y1="88.04" x2="188.66" y2="101.94"/><path class="cls-1" d="M188.66,115.4c0-1.74,2-3.15,4.49-3.15" transform="translate(0 -13.87)"/><path class="cls-1" d="M193.15,112.25c0,1.74-2.22,3.15-5,3.15" transform="translate(0 -13.87)"/><polygon class="cls-6" points="193.12 114.53 191.43 111.09 187.63 110.54 190.38 107.86 189.73 104.08 193.12 105.87 196.52 104.08 195.87 107.86 198.62 110.54 194.82 111.09 193.12 114.53"/><g class="cls-7"><g class="cls-7"><path class="cls-8" d="M34.6,117.39H25.3L0,22.61H12.7l8.4,33.88q3.2,13.16,5.5,23.17T30.1,95q1.09-5.33,3.35-15T39.1,56.77l8.7-34.16H59.9Z" transform="translate(0 -13.87)"/></g><g class="cls-7"><path class="cls-8" d="M77.5,22.61h9.4L113,117.39H100.3L94.1,92.61H69.7l-6.4,24.78H51.5ZM91,80.29q-3.19-12.6-5.5-22.89T82,41.23q-1.4,6.3-3.7,16.52T72.9,80.29Z" transform="translate(0 -13.87)"/></g><g class="cls-7"><path class="cls-8" d="M154.2,41.65a20.5,20.5,0,0,0-5-5.53,11,11,0,0,0-13.4.84A19.21,19.21,0,0,0,131,44.52a49.91,49.91,0,0,0-2.6,11.27,113.26,113.26,0,0,0-.8,13.86,120,120,0,0,0,.75,13.86A48.06,48.06,0,0,0,131,94.85a19.05,19.05,0,0,0,5,7.7,11.51,11.51,0,0,0,8,2.8,17.17,17.17,0,0,0,4.4-.56c1.4-.37,2.68-.77,3.85-1.19a30.77,30.77,0,0,0,2.9-1.19l1.45-.7,2.8,11.76-1.3.7a33.8,33.8,0,0,1-3.65,1.61,42.33,42.33,0,0,1-5.6,1.68,31.22,31.22,0,0,1-7.15.77q-13.4,0-20.15-12T114.7,71.19A105.26,105.26,0,0,1,116.5,51,53.84,53.84,0,0,1,122,35.21,28.34,28.34,0,0,1,131.15,25a23.23,23.23,0,0,1,13-3.64,15.3,15.3,0,0,1,9.85,3.08,27,27,0,0,1,6.25,7Z" transform="translate(0 -13.87)"/></g></g><g class="cls-7"><g class="cls-7"><path class="cls-2" d="M238.2,24.58V83.24q0,13,3.9,18.55a12.29,12.29,0,0,0,10.6,5.53q6.8,0,10.05-6.37T266,83.24V24.58h11.9V84.5a66.79,66.79,0,0,1-1.35,13.72,34.08,34.08,0,0,1-4.45,11.34,22.72,22.72,0,0,1-8.2,7.77,25.2,25.2,0,0,1-12.5,2.87,22.61,22.61,0,0,1-11.85-2.87,22.38,22.38,0,0,1-7.7-7.77,34.47,34.47,0,0,1-4.2-11.34A72.22,72.22,0,0,1,226.4,84.5V24.58Z" transform="translate(0 -13.87)"/></g><g class="cls-7"><path class="cls-2" d="M307.4,24.58h9.4l26.1,94.78H330.2L324,94.58H299.6l-6.4,24.78H281.4Zm13.5,57.68q-3.19-12.6-5.5-22.89T311.9,43.2q-1.39,6.3-3.7,16.52t-5.4,22.54Z" transform="translate(0 -13.87)"/><path class="cls-2" d="M349.4,24.58h11.9v82.18h25.3v12.6H349.4Z" transform="translate(0 -13.87)"/><path class="cls-2" d="M393.6,24.58h11.9v94.78H393.6Z" transform="translate(0 -13.87)"/><path class="cls-2" d="M439,23.32a24.3,24.3,0,0,1,6.7.91,44.25,44.25,0,0,1,5.85,2.1,29.85,29.85,0,0,1,4.5,2.45,19.58,19.58,0,0,1,2.55,2l-4.9,12-1.3-1c-.87-.65-2-1.4-3.4-2.24a30.69,30.69,0,0,0-4.6-2.24,13.23,13.23,0,0,0-4.8-1,9,9,0,0,0-6.25,2.38q-2.66,2.39-2.65,7.42,0,6.3,2.9,10.29a26.69,26.69,0,0,0,9.1,7.35,57.47,57.47,0,0,1,7.15,4.69,24.09,24.09,0,0,1,8.7,13.09,41.46,41.46,0,0,1-.3,20.58,29.25,29.25,0,0,1-4.3,9.17,22.48,22.48,0,0,1-7.05,6.44,19,19,0,0,1-9.7,2.45,24,24,0,0,1-7.4-1.12,41.37,41.37,0,0,1-6.35-2.59,33.84,33.84,0,0,1-4.9-3c-1.37-1-2.39-1.82-3.05-2.38l4.2-12.88,1.8,1.4c1.2.93,2.66,2,4.4,3.08a49.4,49.4,0,0,0,5.5,3.08,11.94,11.94,0,0,0,5,1.4q5.3,0,7.9-3.64t2.6-10.22a18.9,18.9,0,0,0-.7-5.39,12.46,12.46,0,0,0-2-4,15.32,15.32,0,0,0-3.15-3,40.7,40.7,0,0,0-4.15-2.59,87.87,87.87,0,0,1-8-5.32,28.39,28.39,0,0,1-6.05-6.09,25.17,25.17,0,0,1-3.8-7.84,37.55,37.55,0,0,1-1.3-10.57,29,29,0,0,1,1.6-9.73,26.14,26.14,0,0,1,4.4-8,21,21,0,0,1,6.7-5.46A18.36,18.36,0,0,1,439,23.32Z" transform="translate(0 -13.87)"/><path class="cls-2" d="M470.2,24.58h40.2v12.6H482.1V63.64h23.3l-1.5,12.74H482.1v30.38h29.8v12.6H470.2Z" transform="translate(0 -13.87)"/></g></g></svg>