<svg id="logo" xmlns="http://www.w3.org/2000/svg" viewBox="0 0 521.49 172.81"><defs><style>.cls-1{fill:none;stroke:#959698;}.cls-1,.cls-5{stroke-miterlimit:10;}.cls-10,.cls-2{fill:#65c05d;}.cls-3,.cls-5{fill:#fff;}.cls-4{fill:#959698;}.cls-5{stroke:#000;}.cls-6{fill:#fff82e;}.cls-10,.cls-7{font-size:100px;font-family:Amaranth-Regular, Amaranth;}.cls-7{fill:#999;}.cls-8{letter-spacing:-0.07em;}.cls-9{letter-spacing:-0.03em;}.cls-11{letter-spacing:-0.02em;}</style></defs><title>logo_vactualise</title><rect class="cls-1" x="180.7" y="40.17" width="20.9" height="48.11"/><rect class="cls-2" x="169.89" y="13.87" width="42.48" height="8.28" rx="4.14" ry="4.14"/><rect class="cls-2" x="185.33" y="22.14" width="11.6" height="15.47"/><rect class="cls-3" x="187.74" y="22.14" width="6.82" height="12.66"/><rect class="cls-4" x="176.57" y="37.61" width="28.76" height="5.1" rx="2.55" ry="2.55"/><polygon class="cls-5" points="180.5 49.72 180.5 49.72 180.5 49.72 180.5 49.72 180.5 49.72"/><rect class="cls-4" x="180.5" y="49.72" width="10.17" height="3.23"/><rect class="cls-4" x="180.5" y="56.31" width="4.83" height="2.95"/><rect class="cls-4" x="180.5" y="62.63" width="10.17" height="3.2"/><rect class="cls-4" x="180.5" y="69.5" width="4.83" height="2.95"/><rect class="cls-4" x="180.5" y="75.95" width="10.17" height="3.23"/><line class="cls-1" x1="188.65" y1="88.28" x2="188.66" y2="101.91"/><line class="cls-1" x1="193.1" y1="88.34" x2="193.15" y2="112.25"/><line class="cls-1" x1="188.66" y1="101.91" x2="188.66" y2="115.81"/><path class="cls-1" d="M296.14,262.37c0-1.74,2-3.15,4.49-3.15" transform="translate(-107.48 -146.97)"/><path class="cls-1" d="M300.63,259.22c0,1.74-2.22,3.15-5,3.15" transform="translate(-107.48 -146.97)"/><polygon class="cls-6" points="193.12 128.4 191.43 124.96 187.63 124.41 190.38 121.73 189.73 117.95 193.12 119.74 196.52 117.95 195.87 121.73 198.62 124.41 194.82 124.96 193.12 128.4"/><text class="cls-7" transform="translate(0.8 117.39) scale(1 1.4)"><tspan class="cls-8">V</tspan><tspan class="cls-9" x="51.2" y="0">A</tspan><tspan x="109.2" y="0">C</tspan></text><text class="cls-10" transform="translate(220.4 119.36) scale(1 1.4)"><tspan class="cls-11">U</tspan><tspan x="61.5" y="0">ALISE</tspan></text></svg>